{"asset":{"version":"2.0","generator":"THREE.GLTFExporter"},"scenes":[{"name":"AuxScene","nodes":[0]}],"scene":0,"nodes":[{"mesh":0}],"bufferViews":[{"buffer":0,"byteOffset":0,"byteLength":10368,"target":34962,"byteStride":12},{"buffer":0,"byteOffset":10368,"byteLength":10368,"target":34962,"byteStride":12},{"buffer":0,"byteOffset":20736,"byteLength":6912,"target":34962,"byteStride":8},{"buffer":0,"byteOffset":27648,"byteLength":6912,"target":34962,"byteStride":8},{"buffer":0,"byteOffset":34560,"byteLength":1728,"target":34963}],"buffers":[{"byteLength":36288,"uri":"data:application/octet-stream;base64,"}],"accessors":[{"bufferView":0,"componentType":5126,"count":864,"max":[30,32.49940872192383,30],"min":[-1.2960099607264939e-14,-0.002924850210547447,-0.0005500274710357189],"type":"VEC3"},{"bufferView":1,"componentType":5126,"count":864,"max":[1,1,1],"min":[-1,-1,-1],"type":"VEC3"},{"bufferView":2,"componentType":5126,"count":864,"max":[0.8387096524238586,0.875],"min":[0.7419354915618896,0.75],"type":"VEC2"},{"bufferView":3,"componentType":5126,"count":864,"max":[-1,0],"min":[-1,0],"type":"VEC2"},{"bufferView":4,"componentType":5123,"count":864,"max":[863],"min":[0],"type":"SCALAR"}],"materials":[{"pbrMetallicRoughness":{"metallicFactor":0,"roughnessFactor":0.9,"baseColorTexture":{"index":0}},"alphaMode":"MASK","alphaCutoff":0.01,"extensions":{"KHR_materials_unlit":{}}}],"textures":[{"sampler":0,"source":0}],"samplers":[{"magFilter":9728,"minFilter":9728,"wrapS":33071,"wrapT":33071}],"images":[{"mimeType":"image/png","uri":"data:image/png;base64,"}],"meshes":[{"primitives":[{"mode":4,"attributes":{"POSITION":0,"NORMAL":1,"TEXCOORD_0":2,"_UVANIMATION":3},"indices":4,"material":0}]}],"extensionsUsed":["KHR_materials_unlit"]}